<?xml version="1.0" encoding="utf-8"?>
<!-- Generator: Adobe Illustrator 19.1.0, SVG Export Plug-In . SVG Version: 6.00 Build 0)  -->
<svg version="1.1" id="Layer_1" xmlns="http://www.w3.org/2000/svg" xmlns:xlink="http://www.w3.org/1999/xlink" x="0px" y="0px"
	 viewBox="0 0 700 700" style="enable-background:new 0 0 700 700;" xml:space="preserve">
<g>
	<path d="M153,107h395c12.4,0,23.7,5.1,31.8,13.2c8.1,8.1,13.2,19.4,13.2,31.8v395c0,12.3-5,23.2-13,31.3l-0.1,0.1
		c-8,8-19,13-31.1,13.6l-183-0.3L270.2,661l-27.5,17.3l0-32.5l0.1-53.9H153c-12.4,0-23.7-5.1-31.8-13.2
		c-8.1-8.1-13.2-19.4-13.2-31.8V152c0-12.4,5.1-23.7,13.2-31.8S140.6,107,153,107L153,107z M548,142.9H153c-2.5,0-4.8,1-6.4,2.7
		c-1.6,1.6-2.7,3.9-2.7,6.4v395c0,2.5,1,4.8,2.7,6.4c1.6,1.6,3.9,2.7,6.4,2.7h107.8h17.9l0,18l-0.1,39.4l72.1-54.6l4-2.5l4.8-0.2
		l187.7,0.1c2.9-0.1,5.5-1.3,7.3-3.1l0.1-0.1c1.5-1.5,2.4-3.6,2.4-6V152c0-2.5-1-4.8-2.7-6.4C552.8,143.9,550.5,142.9,548,142.9z"/>
</g>
</svg>
