<?xml version="1.0" encoding="utf-8"?>
<!-- Generator: Adobe Illustrator 19.1.0, SVG Export Plug-In . SVG Version: 6.00 Build 0)  -->
<svg version="1.1" id="Layer_1" xmlns="http://www.w3.org/2000/svg" xmlns:xlink="http://www.w3.org/1999/xlink" x="0px" y="0px"
	 viewBox="0 0 700 700" style="enable-background:new 0 0 700 700;" xml:space="preserve">
<g>
	<path d="M153,594c-12.4,0-23.7-5.1-31.8-13.2S108,561.4,108,549V154c0-12.4,5.1-23.7,13.2-31.8c8.1-8.1,19.4-13.2,31.8-13.2h89.9
		l-0.1-53.9l0-32.5L270.2,40l95.6,69.4l183-0.3c12.1,0.6,23.2,5.6,31.1,13.6l0.1,0.1c8,8.1,13,19,13,31.3v395
		c0,12.4-5.1,23.7-13.2,31.8c-8.1,8.1-19.4,13.2-31.8,13.2H153L153,594z M554.4,555.4c1.6-1.6,2.7-3.9,2.7-6.4V154
		c0-2.3-0.9-4.4-2.4-6l-0.1-0.1c-1.9-1.8-4.5-3-7.3-3.1l-187.7,0.1l-4.8-0.2l-4-2.5l-72.1-54.6l0.1,39.4l0,18h-17.9H153
		c-2.5,0-4.8,1-6.4,2.7c-1.6,1.6-2.7,3.9-2.7,6.4v395c0,2.5,1,4.8,2.7,6.4c1.6,1.6,3.9,2.7,6.4,2.7h395
		C550.5,558.1,552.8,557.1,554.4,555.4z"/>
</g>
</svg>
