<?xml version="1.0" encoding="utf-8"?>
<!-- Generator: Adobe Illustrator 19.1.0, SVG Export Plug-In . SVG Version: 6.00 Build 0)  -->
<svg version="1.1" id="Layer_1" xmlns="http://www.w3.org/2000/svg" xmlns:xlink="http://www.w3.org/1999/xlink" x="0px" y="0px"
	 viewBox="0 0 700 700" style="enable-background:new 0 0 700 700;" xml:space="preserve">
<g>
	<path d="M548,107c12.4,0,23.7,5.1,31.8,13.2c8.1,8.1,13.2,19.4,13.2,31.8v395c0,12.4-5.1,23.7-13.2,31.8
		c-8.1,8.1-19.4,13.2-31.8,13.2h-89.9l0.1,53.9l0,32.5L430.8,661l-95.6-69.4l-183,0.3c-12.1-0.6-23.2-5.6-31.1-13.6l-0.1-0.1
		c-8-8.1-13-19-13-31.3V152c0-12.4,5.1-23.7,13.2-31.8c8.1-8.1,19.4-13.2,31.8-13.2H548L548,107z M146.6,145.6
		c-1.6,1.6-2.7,3.9-2.7,6.4v395c0,2.3,0.9,4.4,2.4,6l0.1,0.1c1.9,1.8,4.5,3,7.4,3.1l187.7-0.1l4.8,0.2l4,2.5l72.1,54.6l-0.1-39.4
		l0-18h17.9H548c2.5,0,4.8-1,6.4-2.7c1.6-1.6,2.7-3.9,2.7-6.4V152c0-2.5-1-4.8-2.7-6.4c-1.6-1.6-3.9-2.7-6.4-2.7H153
		C150.5,142.9,148.2,143.9,146.6,145.6z"/>
</g>
</svg>
