<?xml version="1.0" encoding="utf-8"?>
<!-- Generator: Adobe Illustrator 19.1.0, SVG Export Plug-In . SVG Version: 6.00 Build 0)  -->
<svg version="1.1" id="Layer_1" xmlns="http://www.w3.org/2000/svg" xmlns:xlink="http://www.w3.org/1999/xlink" x="0px" y="0px"
	 viewBox="0 0 700 700" style="enable-background:new 0 0 700 700;" xml:space="preserve">
<g>
	<path d="M548,594H153c-12.4,0-23.7-5.1-31.8-13.2c-8.1-8.1-13.2-19.4-13.2-31.8V154c0-12.3,5-23.2,13-31.3l0.1-0.1
		c8-8,19-13,31.1-13.6l183,0.3L430.8,40l27.5-17.3l0,32.5l-0.1,53.9H548c12.4,0,23.7,5.1,31.8,13.2c8.1,8.1,13.2,19.4,13.2,31.8v395
		c0,12.4-5.1,23.7-13.2,31.8C571.7,588.9,560.4,594,548,594L548,594z M153,558.1h395c2.5,0,4.8-1,6.4-2.7c1.6-1.6,2.7-3.9,2.7-6.4
		V154c0-2.5-1-4.8-2.7-6.4c-1.6-1.6-3.9-2.7-6.4-2.7H440.2h-17.9l0-18l0.1-39.4l-72.1,54.6l-4,2.5l-4.8,0.2l-187.7-0.1
		c-2.9,0.1-5.5,1.3-7.4,3.1l-0.1,0.1c-1.5,1.5-2.4,3.6-2.4,6v395c0,2.5,1,4.8,2.7,6.4C148.2,557.1,150.5,558.1,153,558.1z"/>
</g>
</svg>
