<?xml version="1.0" encoding="utf-8"?>
<!-- Generator: Adobe Illustrator 19.1.0, SVG Export Plug-In . SVG Version: 6.00 Build 0)  -->
<svg version="1.1" id="Layer_1" xmlns="http://www.w3.org/2000/svg" xmlns:xlink="http://www.w3.org/1999/xlink" x="0px" y="0px"
	 viewBox="0 0 700 500" style="enable-background:new 0 0 700 500;" xml:space="preserve">
<style type="text/css">
	.st0{clip-path:url(#SVGID_2_);fill:#EEEFEF;}
	.st1{clip-path:url(#SVGID_2_);fill:#6D6E70;}
	.st2{fill:#6D6E70;}
	.st3{clip-path:url(#SVGID_4_);fill:#6D6E70;}
	.st4{fill:#FFFFFF;}
	.st5{clip-path:url(#SVGID_6_);fill:#808184;}
	.st6{clip-path:url(#SVGID_6_);fill:#231F20;}
	.st7{fill:#231F20;}
	.st8{clip-path:url(#SVGID_8_);fill:#231F20;}
	.st9{clip-path:url(#SVGID_10_);fill:#231F20;}
	.st10{clip-path:url(#SVGID_12_);fill:#FFF100;}
	.st11{clip-path:url(#SVGID_12_);fill:#231F20;}
	.st12{clip-path:url(#SVGID_12_);}
	.st13{clip-path:url(#SVGID_12_);fill:#938155;}
	.st14{clip-path:url(#SVGID_12_);fill:#929497;}
	.st15{clip-path:url(#SVGID_12_);fill:#8D8F91;}
	.st16{clip-path:url(#SVGID_12_);fill:#EEEFEF;}
	.st17{clip-path:url(#SVGID_12_);fill:#FFD900;}
	.st18{clip-path:url(#SVGID_12_);fill:#948F5A;}
</style>
<g>
	<defs>
		<rect id="SVGID_1_" x="61.5" y="59.6" width="617" height="380.8"/>
	</defs>
	<clipPath id="SVGID_2_">
		<use xlink:href="#SVGID_1_"  style="overflow:visible;"/>
	</clipPath>
	<path class="st0" d="M402.7,104.6c-0.2,0-0.2,0.1-0.2,0.2C402.5,104.7,402.6,104.6,402.7,104.6 M406.3,105.3
		c-0.5,0.4-0.9,0.7-1.2,1c-1.1,0.8-1.7,1.3-1.7,1.3l-0.2,0.1l-0.2,0.1c-0.1,0-2.4,0.9-5.4,1.4c18.4,4.3,66.9,15.7,77,18.7
		c4.8,1.4,31.4,18.3,62.6,39c2.6-1.4,5.2-2.8,7.8-4.1c-27-18.1-48.1-32.1-51.1-33.3C486.6,126.5,427.4,110.9,406.3,105.3
		 M397.2,106.4l-0.6,0.1C396.8,106.5,397,106.5,397.2,106.4 M82.1,201.6c-0.1,0.1-0.2,0.2-0.3,0.2c-0.7,0.4-1.7,0.8-2.8,1.1
		c-1.1,0.3-2.4,0.6-3.6,0.6c-0.8,0-1.6-0.1-2.4-0.5c-0.4-0.2-0.7-0.4-1-0.8c-0.3,0.8-0.7,1.8-1.2,2.9c-3.3,8.4-9.7,25.9-9.3,31.8
		c0.5,7.8-2.1,31.3,19.3,49.1c21.4,17.8,158.7,149.3,158.7,149.3s3.5,5,12.7,5c2,0,4.2-0.2,6.7-0.8c14.1-3.1,200-56.4,213.6-73.1
		c2.6-6.8,8.4-7.3,8.4-7.3s18.8,0,21.4-1c2.6-1,4.7-2.1,7.3-5.7c2.6-3.7,3.1-7.3,5.7-8.4c2.6-1,121.1-37.6,150.4-77.3
		c7.8-6.3,11-7.8,11-7.8s4.2-4.7,0-6.8c0,0-31.1-21.3-67.6-46.1c-0.6,2.5-1.2,5.3-2,8.2c25.6,17.8,44.8,31.7,45.1,33.4
		c1,5-1.6,7.6-6.3,9.2c-3.8,1.3-55.1,16.9-81,26.1c-8,6-17.4,10.8-28.4,13.7c-11.6,6.6-24,14.2-26.4,16.6c-3.7,3.7-7.3,3.7-7.3,3.7
		s-7.3-2.1-8.4-3.7c-1-1.6-1.6-5.2-4.2-6.8c-1-0.6-1.7-0.9-2.3-0.9c-1,0-1.5,0.8-1.8,2.4c-0.5,2.6,1.6,17.8,3.7,18.3
		c0.1,0,0.2,0,0.3,0c0.9,0,2.1-0.8,3.3-1.7c1.2-0.8,2.4-1.7,3.3-1.7c0.4,0,0.7,0.2,0.9,0.7c1,2.6,6.8,11,6.8,11s-3.1,6.3-7.3,8.4
		c-4.2,2.1-20.9,2.6-24,3.7c-2.7,0.9-5.1,3.8-8.1,3.8c-0.4,0-0.9-0.1-1.3-0.2c-3.7-1-19.3-15.1-25.1-15.7c-0.6-0.1-1.2-0.1-1.9-0.1
		c-5.7,0-13,2-11.2,4.8c2.1,3.1,13.6,5.2,12,7.8c-1.2,1.9-26.8,9.3-45,15.4c-11.9,7.1-26.3,12.7-43.8,15.9
		c-32,11.2-79,28.3-86.6,39.2c-2.7,2.4-5.2,3.1-7.2,3.1c-3.3,0-5.4-2-5.4-2S89.7,281.4,84,274.6c-5.7-6.8-14.6-32.4-11.5-40.2
		c3.1-7.8,11.9-25.6,10.4-30.8C82.8,202.9,82.5,202.2,82.1,201.6"/>
	<path class="st1" d="M249.8,294.1L249.8,294.1c0.8,0.7,7.4,6.9,7.8,24.2l0,0.1l0,0l0.7,3.9l1.2-0.2c0,0,0,0-0.7-3.9l-0.6,0.1l0.6,0
		c-0.3-18.7-8.1-25-8.2-25.1L249.8,294.1z"/>
	<path class="st1" d="M237.6,258c0,0-1.7,0.5-3.4,1.3c-0.9,0.4-1.8,0.9-2.6,1.4c-0.8,0.5-1.4,1.2-1.7,2c-0.2,0.7-0.4,2.1-0.5,3.9
		c-0.4,5.4-0.4,14.1-0.4,14.1l1.3,0c0,0,0-3.9,0.2-8c0.1-2.1,0.2-4.2,0.3-6c0.1-1.8,0.3-3.2,0.4-3.6c0.1-0.4,0.6-0.9,1.2-1.3
		c1-0.7,2.4-1.3,3.6-1.8c0.6-0.2,1.1-0.4,1.5-0.5c0.4-0.1,0.6-0.2,0.6-0.2L237.6,258z"/>
	<path class="st1" d="M216.6,246.6c0,0-1.7,0.7-3.4,1.8c-0.9,0.5-1.8,1.1-2.6,1.7c-0.8,0.6-1.4,1.3-1.7,2.1c-0.2,0.7-0.3,2-0.4,3.6
		c-0.1,1.6-0.1,3.6-0.1,5.6c0,4.4,0.1,8.6,0.1,8.6l1.3,0c0,0-0.1-4.2-0.1-8.6c0-2,0-3.9,0.1-5.6c0.1-1.6,0.2-2.9,0.3-3.3
		c0.1-0.4,0.6-1,1.3-1.5c1-0.9,2.5-1.7,3.6-2.3c0.6-0.3,1.1-0.6,1.5-0.7c0.4-0.2,0.6-0.3,0.6-0.3L216.6,246.6z"/>
	<path class="st1" d="M230.9,258.8h-0.6h0.1l-0.1,0l0,0h0.1l-0.1,0l-0.1,0.1c-0.2,0.2-0.8,0.4-1.5,0.4c-0.5,0-1-0.1-1.3-0.3
		l-0.3-0.2l0,0l-0.1,0h0.1l0,0l-0.1,0h0.1h-0.1l0.1,0l0,0h-0.1l0.1,0l0.1-0.1c0.2-0.2,0.8-0.4,1.5-0.4c0.5,0,1,0.1,1.3,0.3l0.3,0.2
		l0,0l0.1,0h-0.1l0,0l0.1,0h-0.1H230.9h0.6c0-0.3-0.1-0.6-0.3-0.8c-0.6-0.6-1.5-0.9-2.6-0.9c-0.7,0-1.4,0.1-1.9,0.4
		c-0.3,0.1-0.5,0.3-0.7,0.5s-0.3,0.5-0.3,0.8c0,0.3,0.1,0.6,0.3,0.8c0.6,0.6,1.5,0.9,2.6,0.9c0.7,0,1.4-0.1,1.9-0.4
		c0.3-0.1,0.5-0.3,0.7-0.5c0.2-0.2,0.3-0.5,0.3-0.8H230.9z"/>
	<path class="st1" d="M227.1,252.9c0,0-1.7,0.7-3.4,1.8c-0.9,0.5-1.8,1.1-2.6,1.7c-0.8,0.6-1.4,1.3-1.7,2.1
		c-0.2,0.7-0.4,2.1-0.5,3.8c-0.4,5.1-0.4,13.3-0.4,13.3l1.3,0c0,0,0-3.6,0.1-7.5c0.1-2,0.1-4,0.3-5.7c0.1-1.7,0.3-3,0.4-3.5
		c0.1-0.4,0.6-1,1.3-1.5c1-0.9,2.5-1.7,3.6-2.3c0.6-0.3,1.1-0.6,1.5-0.7c0.4-0.2,0.6-0.3,0.6-0.3L227.1,252.9z"/>
	<path class="st1" d="M437.2,264l-0.5,0.4c1.3,1.4,2.3,4.4,2.3,8c0,5.1-1.8,11.2-6.4,15.5c-3.1,3-5.9,5.6-8.5,7.5
		c-2.6,1.9-5,3-7.4,3c-1.4,0-2.8-0.4-4.2-1.2c-1.4-0.7-2.3-2-2.9-3.5c-0.6-1.6-0.9-3.4-0.9-5.4c0-2.6,0.5-5.4,1.2-7.8
		c0.7-2.4,1.8-4.4,2.7-5.5c1.5-1.7,4.4-4.9,7.9-7.8c3.4-2.9,7.4-5.2,10.9-5.2c1.9,0,3.7,0.7,5.4,2.5L437.2,264l0.5-0.4
		c-1.8-2-4-2.9-6.3-2.9c-4,0-8.2,2.6-11.7,5.5c-3.5,2.9-6.5,6.2-8,7.9c-1.2,1.3-2.2,3.5-3,6c-0.8,2.5-1.3,5.4-1.3,8.2
		c0,2.1,0.3,4.1,1,5.9c0.7,1.8,1.8,3.2,3.5,4.2c1.6,0.9,3.2,1.3,4.8,1.3c2.8,0,5.4-1.3,8.1-3.2c2.7-2,5.5-4.6,8.6-7.6
		c4.9-4.7,6.8-11.1,6.8-16.4c0-3.7-0.9-7-2.6-8.8L437.2,264z"/>
	<path class="st1" d="M427,283.9l-0.5-0.4c-1,1-1.8,1.5-2.5,1.4c-0.7,0-1.5-0.4-2.5-1.4l-0.6-0.6l-0.4,0.4l0.5-0.4
		c-1.2-1.3-1.7-2.2-1.6-2.7c0-0.3,0.1-0.5,0.3-0.9c0.2-0.4,0.7-0.8,1.2-1.4l0,0l0,0c1-1,1.7-1.5,2.4-1.5c0.6,0,1.4,0.4,2.5,1.5
		l0.6,0.5l0,0l0,0c1.2,1,1.6,1.7,1.6,2.3c0,0.6-0.5,1.5-1.6,2.6L427,283.9l0.5,0.4c1.1-1.2,1.9-2.2,2-3.5c0-1.2-0.7-2.2-2.1-3.3
		l-0.4,0.5l0.4-0.4l-0.6-0.5c-1.2-1.2-2.3-1.8-3.4-1.8c-1.3,0-2.3,0.8-3.3,1.9l0.5,0.4l-0.4-0.4c-0.6,0.6-1,1.1-1.4,1.6
		c-0.3,0.5-0.6,1-0.5,1.6c0,1.2,0.7,2.1,2,3.5l0,0l0.6,0.6l0.4-0.4l-0.4,0.4c1.1,1.1,2.2,1.8,3.4,1.8c1.2,0,2.3-0.7,3.4-1.8
		L427,283.9z"/>
	<path class="st1" d="M611,127.2h-0.6h0.1l-0.1,0l0,0h0.1l-0.1,0l-0.1,0.1c-0.2,0.2-0.8,0.4-1.5,0.4c-0.5,0-1-0.1-1.3-0.3l-0.3-0.2
		l0,0l-0.1,0h0.1l0,0l-0.1,0h0.1h-0.1l0.1,0l0,0h-0.1l0.1,0l0.1-0.1c0.2-0.2,0.8-0.4,1.5-0.4c0.5,0,1,0.1,1.3,0.3l0.3,0.2l0,0l0.1,0
		h-0.1l0,0l0.1,0h-0.1H611h0.6c0-0.3-0.1-0.6-0.3-0.8c-0.6-0.6-1.5-0.9-2.6-0.9c-0.7,0-1.4,0.1-1.9,0.4c-0.3,0.1-0.5,0.3-0.7,0.5
		c-0.2,0.2-0.3,0.5-0.3,0.8c0,0.3,0.1,0.6,0.3,0.8c0.6,0.6,1.5,0.9,2.6,0.9c0.7,0,1.3-0.1,1.9-0.4c0.3-0.1,0.5-0.3,0.7-0.5
		c0.2-0.2,0.3-0.5,0.3-0.8H611z"/>
	<path class="st1" d="M425.7,276.3c0,0,0.3-0.3,0.8-0.8c0.7-0.8,1.9-1.9,3.1-2.8c0.6-0.5,1.2-0.9,1.7-1.2c0.5-0.3,0.9-0.4,1.1-0.4
		l0.1,0c0.1,0,0.4,0.2,0.8,0.5c1.3,1.1,3.7,3.6,5.6,6.2c1,1.3,1.9,2.6,2.5,3.8c0.6,1.2,1,2.2,1,2.8l-0.1,0.4l1.2,0.4
		c0.1-0.3,0.1-0.5,0.1-0.8c0-1.2-0.6-2.5-1.4-4c-1.3-2.2-3.2-4.7-5-6.7c-0.9-1-1.7-1.9-2.5-2.5c-0.7-0.7-1.3-1.1-1.8-1.3l-0.5-0.1
		c-0.8,0-1.5,0.4-2.3,1c-2.4,1.6-5.2,4.7-5.2,4.7L425.7,276.3z"/>
	<path class="st1" d="M427.4,278.5l6.3-6.1l-0.4-0.4l0.3,0.5l0,0c0.2-0.1,1.2-0.6,2.1-0.6c0.8,0,1.4,0.2,2.1,1.3l0,0l3.8,5.3
		l0.5-0.4l-0.6-0.1c0,0-0.6,3.7-1.5,8.4c-0.9,4.7-2.1,10.3-3.3,13.9c-0.4,1.1-0.5,2.1-0.5,2.9c0,0.5,0,0.9,0.2,1.2l0.2,0.5
		c0.1,0.1,0.3,0.3,0.7,0.3c0.3,0,0.5-0.2,0.6-0.3l0.3-0.5l-1.1-0.5l-0.1,0.2l0.3,0.3V304l-0.3,0.1l0.3,0.3V304v0.4l0.3-0.3l-0.3-0.1
		v0.4l0.3-0.3l0,0l0,0l0,0l0,0l0,0c0,0-0.1-0.4-0.1-0.9c0-0.7,0.1-1.6,0.5-2.5c2.6-7.6,4.9-22.5,4.9-22.6l0-0.3l-3.9-5.4l-0.5,0.4
		l0.5-0.3c-0.8-1.5-2.1-2-3.2-2c-1.5,0-2.8,0.8-2.8,0.9l-0.1,0l-6.3,6.2L427.4,278.5z"/>
</g>
<polygon class="st2" points="590.6,134.9 590.1,121.9 598.5,118.5 598,117.3 588.9,121.1 589.4,135 "/>
<polygon class="st2" points="599.9,135.9 600,126.9 607.5,122.9 607,121.8 598.8,126.1 598.7,135.9 "/>
<g>
	<defs>
		<rect id="SVGID_3_" x="61.5" y="59.6" width="617" height="380.8"/>
	</defs>
	<clipPath id="SVGID_4_">
		<use xlink:href="#SVGID_3_"  style="overflow:visible;"/>
	</clipPath>
	<path class="st3" d="M476,248.8c0,0,0.3,0.6,0.7,1.6c1.4,3,4.1,9.6,4.2,13l1.2,0c-0.1-2.6-1.4-6.3-2.6-9.5
		c-1.2-3.1-2.4-5.7-2.4-5.7L476,248.8z"/>
	<path class="st3" d="M481.5,263.5l5.3-0.4l0.1-0.4l0.7-2.2c0.1-0.4,0.2-0.7,0.2-1.1c0-1.3-0.5-2.8-1-4.1c-0.5-1.2-1-2.1-1-2.1
		l-0.3-0.5l-5.4,2.1l-1.1-3.1l-0.6,0.2l0.2,0.6c0,0,2.1-0.6,3.1-1c0.7-0.3,1-0.9,1.3-1.5c0.3-0.6,0.5-1.2,0.8-1.8
		c0.2-0.3,0.4-0.5,0.6-0.6l0.6-0.1l0.1,0l0,0l0-0.1l0,0.1h0l0-0.1l0,0.1l0.1-0.6l-0.5,0.3c0,0,0.6,1.2,1.4,2.3
		c0.4,0.6,0.8,1.2,1.2,1.6c0.2,0.2,0.4,0.4,0.6,0.6c0.2,0.2,0.5,0.3,0.8,0.3l0.1,0l0.1,0.2l0,0.4v0.1l0,0.1l0,0.1
		c0,0,0.2,1.2,0.3,2.7c0.2,1.5,0.3,3.3,0.3,4.5c0,0.6-0.1,1.1-0.1,1.1c-0.2,0.5-0.5,1-0.7,1.4c-0.2,0.4-0.4,0.6-0.4,0.6l0.5,0.4
		l0.3-0.5l-2.6-1.7l-0.7,1l3.1,2.1l0.4-0.5c0,0,0.7-1,1.2-2.2c0.2-0.4,0.2-0.9,0.2-1.6c0-2.6-0.7-7.3-0.7-7.3l-0.6,0.1l0.6,0.1
		l0-0.2c0-0.2,0-0.6-0.2-1c-0.1-0.2-0.2-0.4-0.5-0.6c-0.2-0.2-0.5-0.3-0.9-0.3v0.2l0-0.2l0,0v0.2l0-0.2l0,0c-0.1,0-0.4-0.3-0.8-0.7
		c-0.5-0.6-1.1-1.5-1.5-2.2c-0.4-0.7-0.7-1.3-0.7-1.3l-0.1-0.3l-0.3-0.1l-0.4,0c-0.3,0-0.7,0-1.1,0.2c-0.4,0.2-0.9,0.6-1.2,1.2
		c-0.3,0.7-0.6,1.4-0.8,1.8c-0.2,0.5-0.5,0.8-0.7,0.9c-0.4,0.2-1.2,0.4-1.8,0.6c-0.6,0.2-1.2,0.4-1.2,0.4l-0.6,0.2l1.8,4.9l6.1-2.3
		l-0.2-0.6l-0.5,0.3c0,0,0.1,0.2,0.3,0.6c0.5,1.1,1.6,3.5,1.6,5c0,0.3,0,0.5-0.1,0.7l-0.7,2.2l0.6,0.2l-0.1-0.6l-4.9,0.4
		L481.5,263.5z"/>
</g>
<rect x="539.3" y="162" transform="matrix(0.8941 -0.4478 0.4478 0.8941 -17.7843 264.6296)" class="st4" width="22.9" height="15.8"/>
<polygon class="st4" points="564.5,171.8 564.2,171.3 544.3,181.3 537.8,168.3 557.1,158.6 563.9,172.1 564.5,171.8 564.2,171.3 
	564.5,171.8 565,171.6 557.7,156.9 536.1,167.7 543.7,182.9 565.3,172.1 565,171.6 "/>
<g>
	<defs>
		<rect id="SVGID_5_" x="61.5" y="59.6" width="617" height="380.8"/>
	</defs>
	<clipPath id="SVGID_6_">
		<use xlink:href="#SVGID_5_"  style="overflow:visible;"/>
	</clipPath>
	<path class="st5" d="M485.9,234.4c-1.7,0.7-3.2,2.3-4.6,3.4c-1.4,1.1-5.4,3.4-8,4c-2.5,0.6-11.6,1.3-13,1.3c-1.6,0-2.8,1.1-2.8,1.1
		l0.4,0.5l0.2-0.1c0.4-0.3,1.3-0.8,2.2-0.8c1.5,0,10.4-0.6,13.1-1.3c2.7-0.7,6.7-2.9,8.2-4.1c1.4-1.2,3-2.7,4.5-3.3L485.9,234.4z"/>
	<path class="st5" d="M459.2,247.1c0,0,0.9-0.4,1.9-0.8c1-0.4,2.3-0.8,2.9-0.8c1.5,0,9-0.1,11.7-0.8c2.8-0.7,5.6-4.2,7-5.3
		c1.4-1.1,2.4-1.5,4-2.2l-0.2-0.6c-1.6,0.6-2.7,1.1-4.1,2.3c-1.5,1.2-4.4,4.6-6.8,5.2c-2.5,0.6-10.1,0.8-11.5,0.8
		c-0.8,0-2,0.4-3.1,0.8c-1.1,0.4-2,0.8-2,0.8L459.2,247.1z"/>
	<path class="st6" d="M66.7,166.2c0,0,17,15.3,28.1,21.6c10.9,6.3,113.3,65.4,113.3,65.4l0,0l21.8,11.3l7.8,2.2l0.5-1.8l-7.6-2.1
		l-21.6-11.2l-0.4,0.8l0.5-0.8c0,0-25.6-14.8-52.6-30.4s-55.3-31.9-60.7-35.1c-5.3-3.1-12.3-8.4-17.9-13c-2.8-2.3-5.3-4.4-7-5.9
		c-1.8-1.5-2.8-2.5-2.8-2.5L66.7,166.2z"/>
	<path class="st6" d="M66.8,177.8c0,0,3.2,5.1,7.5,10.6c2.2,2.8,4.6,5.7,7.1,8.1C84,199,86.5,201,89,202l0.7-1.7
		c-2.1-0.8-4.5-2.7-6.9-5.1c-3.6-3.5-7.3-8.2-9.9-11.9c-1.3-1.9-2.5-3.5-3.2-4.7s-1.2-1.9-1.2-1.9L66.8,177.8z"/>
</g>
<polyline class="st7" points="617.2,126.5 594.8,137 595.6,138.7 618,128.2 "/>
<g>
	<defs>
		<rect id="SVGID_7_" x="61.5" y="59.6" width="617" height="380.8"/>
	</defs>
	<clipPath id="SVGID_8_">
		<use xlink:href="#SVGID_7_"  style="overflow:visible;"/>
	</clipPath>
	<path class="st8" d="M609.2,130.7c0,0-28.9-14.9-60.1-30.4c-15.6-7.7-31.8-15.6-45.3-21.7c-13.5-6.2-24.2-10.6-29.1-11.7
		c-9.2-1.9-13.9-3.4-19.2-3.4c-5.4,0-11,1.6-22.3,5.9l0.7,1.8c11.3-4.3,16.7-5.8,21.6-5.8c4.8,0,9.4,1.5,18.8,3.4
		c4.5,0.9,15.3,5.4,28.7,11.5c20.2,9.2,46.5,22.2,67.8,32.9c10.6,5.4,20,10.1,26.7,13.6c3.4,1.7,6.1,3.1,7.9,4.1
		c1.9,1,2.9,1.5,2.9,1.5L609.2,130.7z"/>
	<path class="st8" d="M446.4,267.3c0,0-1.8-6.9-5.5-13.9c-1.8-3.5-4.2-7.1-7.1-9.9c-2.9-2.8-6.4-4.8-10.4-5.1
		c-1.4-0.1-3-0.1-4.8-0.1c-17.9,0-54.3,4.6-74.4,9.8c-22,5.8-41.1,12-53.6,23c-6.2,5.5-9.4,9.6-11.2,13.1c-1.8,3.4-2.3,6.1-3.1,8.3
		c-0.6,1.8-1,4.4-1.2,7.1c-0.2,2.7-0.3,5.7-0.3,8.2c0,3.8,0.1,6.7,0.1,6.7l0.9,0l-0.9-0.2l0,0c0,0.2-0.3,1-1,2c-0.6,1-1.6,2-2.9,2.5
		l0.7,1.7c2-0.8,3.2-2.2,3.9-3.5c0.7-1.2,1-2.2,1.1-2.3l0-0.1l0-0.1c0,0,0-0.7-0.1-1.9c0-1.2-0.1-2.9-0.1-4.7c0-2.5,0.1-5.4,0.3-8.1
		c0.2-2.7,0.6-5.1,1.1-6.6c0.9-2.4,1.3-4.9,3-8.1c1.7-3.2,4.7-7.2,10.8-12.6c12-10.6,31-16.9,52.9-22.6c19.8-5.2,56.2-9.8,73.9-9.8
		c1.8,0,3.3,0,4.7,0.1c3.5,0.2,6.6,2,9.3,4.6c4,3.9,7.1,9.6,9,14.3c1,2.4,1.7,4.5,2.2,6c0.2,0.8,0.4,1.4,0.5,1.8
		c0.1,0.4,0.2,0.6,0.2,0.6L446.4,267.3z"/>
	<path class="st8" d="M241.2,290.6L241.2,290.6c-0.2-0.1-1-0.7-1.8-1.5c-0.8-0.9-1.5-2-1.4-3.2v-9.8v-7.2v-0.1l0-0.1v0l0-0.3
		c0-0.4,0.1-1.2,0.4-1.8c0.4-0.6,0.9-1.1,2.2-1.3c0.3,0,1.2-0.2,2.6-0.5c21.3-4.7,165.9-39.2,165.9-39.2c0,0,0.9-0.2,2.3-0.5
		c4.2-0.9,13.2-2.8,17.9-2.8c0.9,0,1.6,0.1,2.1,0.2c0.9,0.3,2.4,1,3.9,2c2.3,1.5,4.8,3.5,6.8,5.1c1,0.8,1.8,1.5,2.4,2
		c0.6,0.5,0.9,0.8,0.9,0.8l1.2-1.4c0,0-2.5-2.2-5.6-4.6c-1.5-1.2-3.2-2.4-4.8-3.5c-1.6-1-3.1-1.9-4.4-2.3c-0.7-0.2-1.6-0.3-2.6-0.3
		c-3.4,0-8.5,0.9-12.8,1.7c-4.3,0.8-7.8,1.7-7.8,1.7c0,0-2.6,0.6-7.1,1.7c-15.8,3.8-55.2,13.1-91.2,21.6c-18,4.3-35.1,8.3-47.9,11.3
		c-6.4,1.5-11.7,2.7-15.6,3.6c-1.9,0.4-3.5,0.8-4.6,1c-1.1,0.2-1.8,0.4-2,0.4c-1.8,0.2-3,1.2-3.6,2.2c-0.6,1-0.7,2.1-0.7,2.7
		c0,0.3,0,0.5,0,0.6l0.9-0.1h-0.9v17c0,2.1,1.1,3.6,2.1,4.7c1,1.1,2,1.6,2.1,1.7L241.2,290.6z"/>
</g>
<polyline class="st7" points="449.7,238.4 456.1,255.3 457.9,254.6 451.4,237.8 "/>
<g>
	<defs>
		<rect id="SVGID_9_" x="61.5" y="59.6" width="617" height="380.8"/>
	</defs>
	<clipPath id="SVGID_10_">
		<use xlink:href="#SVGID_9_"  style="overflow:visible;"/>
	</clipPath>
	<path class="st9" d="M627.2,128.7l0,0.1c0,0.3-0.1,1-0.3,1.8c-0.2,0.7-0.6,1.3-1,1.5c-8.3,4.1-111.7,57.2-119.6,61.4
		c-8.1,4.3-8.6,9.7-8.6,9.9l0.9,0.1l-0.9-0.4l-12.1,29.2L484,231l-0.8-0.6l-0.5,0.9l0,0c-0.3,0.5-3.3,4.8-9.9,6.6
		c-4.6,1.2-9.1,1.9-13.4,1.9c-2.5,0-4.9-0.2-7.1-0.7l-0.4,1.8c2.4,0.5,4.9,0.7,7.5,0.7c4.5,0,9.1-0.7,13.8-1.9
		c7.7-2,10.9-7.3,11-7.4l-0.8-0.5l-0.6,0.7l3.6,2.7l13.1-31.7l0-0.2l-0.3,0l0.3,0l0,0l-0.3,0l0.3,0c0-0.1,0.3-4.4,7.6-8.4
		c7.8-4.2,111.3-57.3,119.6-61.3c1.3-0.7,1.8-2,2.1-3c0.3-1,0.3-1.9,0.3-2L627.2,128.7z"/>
	<path class="st9" d="M469.2,250.5c0,0,2.3-0.6,4.9-1.5c1.3-0.4,2.7-0.9,3.9-1.3c1.2-0.4,2.3-0.9,3-1.3c1.6-0.9,3.1-2.2,4.2-3.3
		c0.6-0.5,1.1-1,1.5-1.3l0.5-0.3l0.1,0l-0.1-0.4v0.4l0.1,0l-0.1-0.4v0.4v-0.7l-0.1,0.7l0.1,0v-0.7l-0.1,0.7l0.2-0.9l-0.9,0l-0.1,8.4
		l10.8-2.3l-0.2-0.9l0.2,0.9c0,0,1-0.2,2.1-0.7c0.5-0.3,1.1-0.6,1.6-1.1c0.5-0.5,0.9-1.2,1-2c0.1-0.6,0.2-3.3,1.2-7.5
		c2.9-12.4,13-37.7,49.6-55.8l0,0l0,0c32-17.8,45.2-20,49.5-20c0.7,0,1.2,0.1,1.5,0.1l0.3,0.1l0,0l0.1-0.4l-0.2,0.4l0,0l0.1-0.4
		l-0.2,0.4l0.2,0.1l0.3,0l-0.1-0.9v0.9l0.1,0l-0.1-0.9v0.9h0c0.1,0,1.4,0.2,2.9,3.1c1.4,2.9,2.8,8.6,2.8,19.3c0,2.2-0.1,4.6-0.2,7.2
		l1.9,0.1c0.1-2.6,0.2-5.1,0.2-7.3c0-11.6-1.6-17.6-3.3-20.8c-0.9-1.6-1.8-2.5-2.6-3c-0.8-0.5-1.4-0.5-1.6-0.5l-0.1,0l0.1,0.9
		l0.4-0.9c-0.1-0.1-0.8-0.3-2.5-0.3c-4.9,0-18.3,2.3-50.4,20.2l0.5,0.8l-0.4-0.8c-24.7,12.2-37.7,27.8-44.4,40.6
		c-3.4,6.4-5.2,12.1-6.2,16.4c-1,4.3-1.2,7.1-1.2,7.7c0,0.3-0.2,0.6-0.5,0.9c-0.4,0.4-1.1,0.8-1.7,1c-0.3,0.1-0.6,0.2-0.7,0.2
		l-0.2,0.1l-0.1,0l0,0l-8.5,1.8l0.1-6.8l-0.7-0.2l-0.3,0c-0.4,0-0.6,0.1-0.9,0.3c-0.8,0.5-1.6,1.3-2.7,2.3c-1.1,0.9-2.3,2-3.4,2.6
		c-0.5,0.3-1.6,0.7-2.7,1.1c-1.8,0.6-4,1.3-5.7,1.8c-1.7,0.5-3,0.9-3,0.9L469.2,250.5z"/>
	<path class="st9" d="M492.4,246.7c0,0-0.2,3.4-0.2,8.3c0,4.6,0.2,10.4,1,16.1c0.8,5.7,2.1,11.1,4.6,14.9l1.6-1
		c-2.2-3.3-3.5-8.6-4.3-14.1c-0.8-5.5-1-11.3-1-15.8c0-2.4,0.1-4.5,0.1-5.9s0.1-2.3,0.1-2.3L492.4,246.7z"/>
	<path class="st9" d="M485.3,233.9l0.5-0.3l-0.6,0.2L485.3,233.9l0.5-0.3l-0.6,0.2c0,0,0.1,0.2,0.1,0.5c0.4,1.9,1.2,7.8,1.2,11.1
		c0,0.6,0,1.1-0.1,1.5l-0.1,0.4l0,0.1l0.2,0.1l-0.2-0.1l0,0l0.2,0.1l-0.2-0.1l0.7,0.6l0.5-0.8c-0.7-0.4-1.6-1.4-2.3-2.4
		c-0.3-0.5-0.6-1-0.8-1.3c-0.2-0.3-0.3-0.5-0.3-0.5l-1.6,0.9c0,0,0.5,0.9,1.3,2c0.8,1.1,1.7,2.3,2.9,3l0.7,0.4l0.5-0.6
		c0.4-0.5,0.4-0.9,0.5-1.4c0.1-0.5,0.1-1.1,0.1-1.7c0-2.1-0.3-5-0.6-7.5c-0.2-1.2-0.3-2.3-0.5-3.2c-0.1-0.4-0.1-0.8-0.2-1.1
		l-0.1-0.4l-0.2-0.4L485.3,233.9z"/>
	<path class="st9" d="M72.7,200.7l1.4-0.4c0,0-0.4-1.5-0.9-3.8c-0.9-3.5-2.1-9-3.2-14.3c-1.1-5.4-1.9-10.7-1.9-13.7
		c0-0.7,0.1-1.3,0.1-1.7l0.1-0.3v0l-0.5-0.3l0.3,0.4l0.2-0.2l-0.5-0.3l0.3,0.4c1-0.7,2.4-1,3.9-1c2,0,4.2,0.6,5.1,1.1
		c0,0,0.3,0.2,0.8,0.5c3.3,2.1,15.1,9.8,27.9,18c12.8,8.2,26.5,17,34,21.2c7.8,4.4,30.8,17.6,52.4,29.8
		c10.8,6.1,21.3,11.9,29.3,16.2c4,2.2,7.5,4,10.1,5.2c1.3,0.6,2.4,1.2,3.2,1.5c0.4,0.2,0.8,0.3,1.1,0.4c0.3,0.1,0.6,0.2,1,0.2l0.3,0
		c0.4,0,0.7-0.1,1.3-0.1c1.9-0.3,5.8-1.2,11.2-2.6c18.9-4.7,56.6-14.8,92.8-23.8c18.1-4.5,35.8-8.7,50.7-11.9
		c14.8-3.2,26.7-5.2,33-5.5l0-1.4l-0.4,1.3c5,1.5,8.4,3.6,10.5,5.4c1,0.9,1.8,1.6,2.2,2.1c0.2,0.3,0.4,0.5,0.5,0.6l0.1,0.1l0,0
		l0.2-0.1l-0.2,0.1l0,0l0.2-0.1l-0.2,0.1l0,0l10.8,15.2l0.6,0.1c0,0,2.7,0.3,6.4,0.3c3.8,0,8.9-0.3,13.6-1.5
		c4.7-1.2,9.1-3.3,11.5-7.3c0.4-0.7,0.8-1.7,1.2-3c1.5-4.4,3.5-12.3,5.5-19.5c1-3.6,2.1-7,3.1-9.7c0.5-1.3,1-2.5,1.4-3.4
		c0.4-0.9,0.9-1.5,1.1-1.6c0.1-0.1,0.7-0.5,1.6-1.1c3.5-2.1,11.5-6.6,21.5-12c15.1-8.1,34.6-18.5,50.5-26.9
		c7.9-4.2,14.9-7.9,19.9-10.5c5-2.6,8-4.2,8-4.2l2.3-1.2l-2.3-1.3c0,0-17.2-9.7-35.6-19.6c-9.2-5-18.6-10-26.4-13.9
		c-3.9-2-7.3-3.6-10.1-4.9c-2.8-1.3-4.8-2.1-6.2-2.4c-1.9-0.4-5.7-2.1-10.4-4.3c-7-3.3-16.2-7.8-25.2-11.6c-9-3.7-17.7-6.7-24.2-6.7
		c-0.4,0-0.8,0-1.2,0c-4.3,0.3-9.7,2.5-15.6,5.6c-17.7,9.2-39.4,26.6-39.4,26.6l0.9,1.1l-0.5-1.3l-0.2,0.1c-0.9,0.3-4.9,1.6-8.4,1.6
		c-1.8,0-3.4-0.3-4.5-1.1c-1-0.7-1.7-1.7-1.7-4l0-0.4c0.1-2.8,0.4-4.8,0.7-6.2c0.2-1,0.5-1.6,0.8-2.1c0.4-0.6,1-0.9,2-1.3
		c1-0.3,2.5-0.7,4.4-1.3c1.7-0.6,5.1-2.1,9.5-4.2c13-6.2,34.5-17.3,40.4-20.4c3.9-2.1,10.7-3.6,18.5-3.6c6.7,0,14.1,1.1,21.1,3.7
		c3.8,1.4,14.1,6,27.2,12.2c19.7,9.2,46.1,21.8,67.4,32.1c10.7,5.2,20.1,9.7,26.9,13c3.4,1.6,6.1,3,8,3.9c1.9,0.9,2.9,1.4,2.9,1.4
		l0.5,0.3l0.5-0.2l0.1,0c0.3-0.1,2.1-0.6,4.1-0.6c1.7,0,3.6,0.4,5,1.4c0.5,0.3,1,1.2,1.3,2.5c0.3,1.3,0.5,2.9,0.5,4.6
		c0,2.5-0.3,5.2-0.7,7.5c-0.4,2.4-1,4.4-1.5,5.4c-0.9,1.9-1.9,3.1-2.8,4.5c-1,1.4-1.8,3.1-2,5.5c-0.2,2.3-0.3,7.1-0.7,11.7
		c-0.1,2.3-0.3,4.6-0.6,6.5c-0.1,0.9-0.2,1.8-0.4,2.4c-0.1,0.7-0.3,1.2-0.4,1.4c-0.1,0.4-0.9,1.2-1.8,1.9c-1.5,1.2-3.6,2.3-5.3,3.2
		c-0.8,0.4-1.6,0.8-2.1,1.1c-0.5,0.3-0.8,0.4-0.8,0.4l-0.7,0.3l-0.1,0.8c0,0,0,0.4-0.1,1.2c-0.7,5.8-4.6,32.3-18.3,57.3
		c-6.8,12.5-16,24.6-28.5,33.6c-12.4,9-28.1,15-47.8,15.3l0,1.4l0.3-1.4c-3.9-1-7.4-3.3-10.4-6.4c-4.5-4.6-8-10.8-10.2-15.8
		c-1.1-2.5-2-4.7-2.5-6.3c-0.3-0.8-0.5-1.4-0.6-1.9s-0.2-0.7-0.2-0.7l-0.3-1.1l-1.1,0c0,0-1.8,0.1-3.6,0.4c-0.9,0.2-1.9,0.4-2.7,0.9
		c-0.4,0.2-0.8,0.5-1.2,0.9c-0.4,0.4-0.6,1-0.6,1.6c0,0.4,0.1,0.9,0.3,1.3c0.6,1.1,0.9,2.6,0.9,3.8c0,0.7-0.1,1.2-0.3,1.6
		c-0.2,0.4-0.4,0.6-0.6,0.7l0.4,1v-1.1l-0.4,0.1l0.4,1v-1.1v0.8l0.4-0.7c0,0-0.2-0.1-0.4-0.1v0.8l0.4-0.7l-0.1,0.2l0.2-0.2l0,0
		l-0.1,0.2l0.2-0.2c-0.1,0-0.5-0.6-1-1.4c-1.7-3-4.2-9.4-6.2-14.9c-1-2.8-1.9-5.4-2.6-7.3c-0.6-1.9-1-3.1-1-3.1l-0.3-0.8l-0.9-0.1
		c0,0-2.8-0.4-5.7-0.4c-1,0-1.9,0-2.8,0.2c-0.9,0.1-1.7,0.3-2.5,0.7c-1.6,0.9-2.5,2.4-3.1,3.6c-0.5,1.2-0.7,2.2-0.7,2.2l-0.1,0.5
		l0.2,0.4c0,0,0.1,0.2,0.3,0.6c0.3,0.5,0.6,1.4,0.9,2.2c0.3,0.8,0.5,1.7,0.5,1.9l0,0l0.6,0.1l-0.5-0.3l-0.1,0.3l0.6,0.1l-0.5-0.3
		l0,0l0.6,0.4l-0.5-0.6l-0.1,0.1l0.6,0.4l-0.5-0.6l0,0c-0.3,0.2-1.4,0.8-2.6,1.5c-1.9,1-4.4,2.2-6.5,3.1c-2,0.9-3.6,1.6-3.6,1.6
		l-0.8,0.4l0,0.9l0,0.3c-0.1,3.1-1.7,30-17.8,56.5c-8.1,13.2-19.8,26.4-36.7,36.4c-17,10-39.3,17-68.7,17.8l0,1.4l0.2-1.4
		c-22.3-3.7-34.3-13.9-40.8-24.7c-6.6-10.8-7.7-22.4-7.7-28.9c0-1.6,0.1-2.9,0.1-3.7c0-0.4,0.1-0.8,0.1-1l0-0.3l0.3-2.1l-2.1,0.6
		c0,0-0.5,0.2-1.4,0.4c-1.3,0.3-3.4,0.9-5.4,1.3c-2,0.4-4,0.8-4.9,0.7l-0.3,0h0c-0.1,0-0.6-0.3-1.2-0.9c-0.9-0.9-2-2.2-2.7-3.4
		c-0.4-0.6-0.7-1.1-0.9-1.4l-0.3-0.4l-0.1-0.1l-1.2,0.7l1.4,0c0,0-0.1-5.2-0.4-10.5c-0.2-2.7-0.4-5.3-0.8-7.5
		c-0.2-1.1-0.4-2-0.6-2.8c-0.1-0.4-0.3-0.7-0.4-1.1c-0.2-0.3-0.4-0.7-1-1c-0.5-0.2-0.9-0.4-1.5-0.5c-2.1-0.5-5.5-1.1-8.8-1.9
		c-1.6-0.4-3.2-0.9-4.5-1.4c-1.3-0.5-2.2-1.1-2.5-1.4c-1.2-1.4-2-3-2.5-4.2c-0.2-0.6-0.4-1.1-0.5-1.5l-0.1-0.4l0-0.1l0,0l-0.1-0.7
		l-126.9-70.6l-27.5-19.9l2.9,5.4l0.1,0.1c0.1,0.3,0.5,1,0.8,1.9c0.3,0.8,0.6,1.8,0.6,2.3l0,0.3l0.3,0.1l-0.2-0.3l-0.1,0.1l0.3,0.1
		l-0.2-0.3c-0.3,0.2-1.2,0.6-2.1,0.8c-0.9,0.3-2,0.5-2.8,0.5c-0.5,0-1-0.1-1.2-0.2l-0.2-0.2l0,0L72.7,200.7l-1.4,0.3
		c0.2,1,0.9,1.7,1.7,2.1c0.8,0.4,1.6,0.5,2.4,0.5c1.2,0,2.5-0.2,3.6-0.6c1.1-0.3,2.1-0.7,2.8-1.1c0.5-0.3,0.8-0.8,1-1.2
		c0.2-0.5,0.2-0.9,0.2-1.3c0-1.3-0.5-2.6-0.9-3.7c-0.4-1.1-0.9-1.9-0.9-1.9l-1.2,0.7l-0.8,1.1l22.7,16.4l126.4,70.4l0.7-1.2
		l-1.4,0.3c0,0.1,0.7,4.2,3.8,7.6c1,1.1,2.5,1.8,4.2,2.4c2.6,0.9,5.8,1.6,8.5,2.2c1.4,0.3,2.6,0.5,3.6,0.8c1,0.2,1.7,0.4,1.9,0.5
		l0.3-0.7l-0.6,0.5l0.2,0.2l0.3-0.7l-0.6,0.5l0.1-0.1l-0.2,0.1l0,0l0.1-0.1l-0.2,0.1c0,0,0.3,0.5,0.4,1.2c0.6,2.4,1,7.4,1.2,11.6
		c0.1,2.1,0.2,4.1,0.2,5.5c0,1.4,0.1,2.3,0.1,2.3l0,0.4l0.2,0.3c0,0,1,1.7,2.3,3.5c0.7,0.9,1.4,1.8,2.2,2.6c0.8,0.7,1.6,1.4,2.8,1.6
		l0,0c0.2,0,0.5,0,0.7,0c0.9,0,2.1-0.2,3.4-0.4c3.9-0.7,8.9-2.1,9-2.1l-0.4-1.4l-1.4-0.2c0,0-0.3,2.1-0.3,5.5
		c0,6.8,1.1,18.9,8.1,30.4c7,11.5,19.8,22.2,42.8,26l0.1,0l0.1,0c30.8-0.9,54.1-8.4,71.7-19.2c26.5-16.3,40-39.9,47-59.5
		c6.9-19.5,7.3-35,7.3-35.1l-1.4,0l0.6,1.3c0,0,3.1-1.4,6.4-2.9c1.6-0.8,3.3-1.6,4.6-2.2c0.7-0.3,1.2-0.7,1.7-0.9
		c0.2-0.1,0.4-0.3,0.6-0.4c0.2-0.2,0.4-0.3,0.6-0.6l0,0c0.3-0.5,0.3-1,0.4-1.3c0-0.7-0.2-1.3-0.4-1.9c-0.6-1.9-1.6-4-1.7-4.1
		L457,255l1.4,0.3l0,0c0-0.1,0.2-0.9,0.6-1.8c0.4-0.9,1-1.7,1.8-2.2c0.2-0.1,0.8-0.3,1.5-0.4c0.7-0.1,1.6-0.1,2.4-0.1
		c1.3,0,2.6,0.1,3.6,0.2c0.5,0,0.9,0.1,1.2,0.1c0.3,0,0.4,0.1,0.4,0.1l0.2-1.4l-1.3,0.4c0,0,2.3,6.9,4.9,13.8
		c1.3,3.5,2.7,6.9,3.9,9.6c0.6,1.3,1.2,2.4,1.8,3.3c0.3,0.4,0.6,0.8,0.9,1.1c0.2,0.2,0.4,0.3,0.6,0.4c0.2,0.1,0.5,0.3,0.9,0.3
		c0.2,0,0.5,0,0.7-0.1c1-0.4,1.7-1.2,2.1-2.1c0.4-0.9,0.5-1.8,0.5-2.8c0-1.7-0.5-3.5-1.2-5.1l0,0l-0.2,0.1h0.2l0-0.1l-0.2,0.1h0.2
		h-0.3l0.3,0.1l0-0.1h-0.3l0.3,0.1l-0.2-0.1l0.2,0.1l0,0l-0.2-0.1l0.2,0.1l0,0l0,0l0,0l0,0c0,0,0.4-0.3,0.9-0.5
		c0.8-0.3,2-0.5,2.9-0.6c0.5-0.1,0.9-0.1,1.2-0.1c0.3,0,0.4,0,0.4,0l-0.1-1.4l-1.4,0.4c0,0.1,2,7.1,6.3,14.7c2.1,3.8,4.8,7.8,8,11.1
		c3.3,3.3,7.2,6,11.8,7.1l0.2,0l0.2,0c21.7-0.3,38.8-7.3,52-17.7c19.9-15.6,31.2-38.7,37.6-57.8c6.4-19.1,7.9-34.3,7.9-34.4
		l-1.4-0.1l0.6,1.3c0,0,2.4-1.1,5-2.5c1.3-0.7,2.7-1.6,3.8-2.5c1.2-0.9,2.1-1.8,2.7-3c0.2-0.6,0.4-1.2,0.6-2c0.5-2.7,0.9-6.9,1.1-11
		c0.2-4.1,0.4-8.1,0.5-9.9c0.2-1.9,0.7-2.9,1.5-4.2c0.8-1.2,2-2.6,3.1-4.9c0.6-1.4,1.2-3.6,1.7-6.1c0.5-2.5,0.8-5.4,0.8-8
		c0-1.9-0.2-3.7-0.6-5.3c-0.4-1.6-1.1-3-2.3-4c-2.1-1.6-4.6-2-6.7-2c-2.8,0-4.9,0.7-5,0.8l0.4,1.3l0.6-1.3c0,0-29.2-14.2-60.4-29.2
		c-15.6-7.5-31.7-15.1-44.9-21.3c-13.2-6.2-23.4-10.8-27.4-12.3c-7.4-2.7-15.1-3.8-22.1-3.8c-8.1,0-15.2,1.5-19.8,3.9
		c-3.9,2.1-14.7,7.7-25.4,13c-5.3,2.7-10.6,5.3-14.9,7.3c-4.3,2.1-7.7,3.6-9.1,4.1c-1.5,0.5-2.8,0.8-3.9,1.1
		c-0.9,0.3-1.7,0.6-2.5,1.1c-1.2,0.8-2,2-2.5,3.8c-0.5,1.7-0.8,4-0.9,7.3l0,0.6c0,2.9,1.1,5.1,2.9,6.3c1.8,1.2,4,1.5,6.1,1.6
		c4.8,0,9.5-1.8,9.6-1.8l0.2-0.1l0.2-0.1c0,0,0.6-0.5,1.7-1.3c3.8-2.9,13.5-10.3,23.9-17.1c5.2-3.4,10.6-6.6,15.5-9
		c4.9-2.4,9.3-4,12.4-4.2c0.3,0,0.7,0,1.1,0c3.8,0,8.9,1.2,14.4,3.1c8.4,2.9,17.9,7.3,26,11.2c4.1,1.9,7.9,3.8,11,5.2
		c3.2,1.4,5.7,2.5,7.6,2.9c0.9,0.2,2.9,1,5.6,2.3c9.5,4.4,27.5,14,43,22.4c7.8,4.2,15,8.2,20.2,11.1c5.2,2.9,8.5,4.8,8.5,4.8
		l0.7-1.2l-0.7-1.2c0,0-24.4,12.8-49.4,26c-12.5,6.6-25.1,13.4-34.8,18.7c-4.9,2.7-9,5-12.1,6.7c-1.5,0.9-2.8,1.6-3.8,2.2
		c-1,0.6-1.6,1-2,1.4c-0.8,0.7-1.4,1.7-2,2.9c-2.1,4.3-4.3,12.1-6.2,19.4c-1,3.6-1.9,7.1-2.8,9.9c-0.4,1.4-0.8,2.6-1.1,3.6
		c-0.3,1-0.7,1.7-0.9,2c-1.7,3-5.4,4.9-9.8,6c-4.3,1.1-9.2,1.4-12.9,1.4c-1.8,0-3.4-0.1-4.4-0.1c-0.5,0-1-0.1-1.3-0.1
		c-0.3,0-0.4,0-0.4,0l-0.1,1.4l1.1-0.8l-10.4-14.6l-1.1,0.8l1.2-0.8c-0.1-0.2-4.1-6.2-14.9-9.5l-0.2-0.1l-0.2,0
		c-7.9,0.3-23.1,3.2-41.8,7.3c-28,6.2-63.6,15.4-92.9,23c-14.6,3.8-27.7,7.2-37.3,9.6c-4.8,1.2-8.8,2.2-11.7,2.9
		c-1.5,0.3-2.7,0.6-3.5,0.8c-0.9,0.2-1.5,0.3-1.6,0.2v0.5l0.1-0.5l-0.1,0v0.5l0.1-0.5l0,0l0,0h0l0,0l0,0c-0.1,0-0.8-0.2-1.6-0.6
		c-3.2-1.4-9.8-4.9-18.1-9.4c-25-13.6-65.4-36.9-76.3-43.1c-7.8-4.4-22.9-14.1-36.4-22.7c-6.7-4.3-13-8.4-17.8-11.5
		c-2.4-1.5-4.4-2.8-5.8-3.8c-0.7-0.5-1.3-0.8-1.8-1.1c-0.5-0.3-0.7-0.5-1-0.6c-1.5-0.7-3.8-1.3-6.4-1.4c-1.9,0-3.8,0.3-5.5,1.4
		c-0.8,0.5-1,1.2-1.1,1.9c-0.1,0.7-0.2,1.4-0.2,2.3c0,4.6,1.6,12.6,3.1,19.6c1.5,7,3.1,12.9,3.1,12.9l0,0L72.7,200.7z"/>
</g>
<polyline class="st7" points="486.7,233 482.1,229.1 480.9,230.6 485.5,234.5 "/>
<g>
	<defs>
		<rect id="SVGID_11_" x="61.5" y="59.6" width="617" height="380.8"/>
	</defs>
	<clipPath id="SVGID_12_">
		<use xlink:href="#SVGID_11_"  style="overflow:visible;"/>
	</clipPath>
	<path class="st10" d="M493.4,246.8c0,0-1.9,27.8,5.2,38.7L493.4,246.8z"/>
	<path class="st11" d="M492.4,246.7c0,0-0.2,3.4-0.2,8.3c0,4.6,0.2,10.4,1,16.1c0.8,5.7,2.1,11.1,4.6,14.9l1.6-1
		c-2.2-3.3-3.5-8.6-4.3-14.1c-0.8-5.5-1-11.3-1-15.8c0-2.4,0.1-4.5,0.1-5.9s0.1-2.3,0.1-2.3L492.4,246.7z"/>
	<path class="st12" d="M431.4,260.7L431.4,260.7c-4.1,0-8.2,2.6-11.7,5.5c-3.5,2.9-6.5,6.3-8,7.9c-1.2,1.3-2.2,3.5-3,6
		c-0.8,2.5-1.3,5.4-1.3,8.2c0,2.1,0.3,4.1,1,5.9c0.7,1.8,1.8,3.2,3.5,4.2c1.6,0.9,3.2,1.3,4.8,1.3h0c2.8,0,5.4-1.3,8.1-3.2
		c2.7-2,5.5-4.6,8.6-7.6c3.1-3,5-6.7,6-10.3c-0.2-0.3-0.4-0.5-0.6-0.8c-0.1-0.2-0.3-0.4-0.4-0.5c-0.8,3.8-2.7,7.7-5.9,10.7
		c-3.1,3-5.9,5.6-8.5,7.5c-2.6,1.9-5,3-7.4,3h0c-1.4,0-2.8-0.4-4.2-1.2c-1.4-0.7-2.3-2-2.9-3.5c-0.6-1.6-0.9-3.4-0.9-5.4
		c0-2.6,0.5-5.4,1.2-7.8c0.7-2.4,1.8-4.4,2.8-5.5c1.5-1.7,4.4-4.9,7.9-7.8c3.4-2.8,7.4-5.2,10.9-5.2h0c1.9,0,3.7,0.7,5.4,2.5
		l0.5-0.4l0.5-0.4l-0.5,0.4l-0.5,0.4c1.3,1.4,2.3,4.4,2.3,8c0,0.1,0,0.2,0,0.2l1.2,1.6c0.1-0.6,0.1-1.3,0.1-1.9c0-3.7-0.9-7-2.6-8.8
		C435.8,261.6,433.6,260.7,431.4,260.7 M438.8,274.6c0,0.3-0.1,0.6-0.1,1c0.4,0.4,0.7,0.9,1,1.3c0.1-0.3,0.1-0.5,0.1-0.8
		L438.8,274.6z"/>
	<path class="st12" d="M423.4,275.2c-1.3,0-2.3,0.8-3.3,1.9c-0.6,0.6-1,1.1-1.4,1.6c-0.3,0.5-0.5,1-0.5,1.6c0,1.2,0.7,2.1,1.9,3.5
		l0,0l0.6,0.6c1.1,1.1,2.2,1.8,3.4,1.8c1.2,0,2.3-0.7,3.4-1.8c1.1-1.2,1.9-2.2,2-3.5c0-1-0.5-1.9-1.5-2.8l-0.5,0.5l-0.9-0.9l0.4-0.4
		l-0.1-0.1c-0.3-0.3-0.7-0.6-1-0.9c-0.1,0.1-0.1,0.1-0.1,0.1l-0.6-0.6C424.5,275.4,424,275.2,423.4,275.2 M421,282.9
		c-1.2-1.3-1.6-2.1-1.6-2.7c0-0.3,0.1-0.5,0.3-0.9c0.2-0.4,0.7-0.8,1.2-1.4l0,0l0,0c1-1,1.7-1.5,2.4-1.5c0,0,0,0,0,0h0
		c0.6,0,1.4,0.4,2.5,1.5l0.6,0.6l0,0l0,0c1.2,1,1.6,1.7,1.6,2.3c0,0.6-0.5,1.5-1.6,2.6l0.5,0.4l-0.5-0.4c-1,1-1.8,1.4-2.5,1.4h0h0
		c-0.7,0-1.5-0.4-2.5-1.4L421,282.9z"/>
	<path class="st12" d="M432.4,269.8c-0.8,0-1.5,0.4-2.3,1c-2.4,1.6-5.2,4.7-5.3,4.7l0.3,0.3l0.6,0.6c0,0,0,0,0.1-0.1
		c0.1-0.1,0.4-0.4,0.7-0.7c0.7-0.7,1.9-1.9,3.1-2.8c0.6-0.5,1.2-0.9,1.7-1.2c0.5-0.3,0.9-0.4,1.1-0.4c0,0,0,0,0,0l0.1,0
		c0,0,0.2,0.1,0.5,0.3c0.2-0.1,0.6-0.4,1.3-0.6c-0.5-0.4-0.9-0.7-1.3-0.9L432.4,269.8z M435.3,271.8c-0.5,0.1-1,0.3-1.4,0.4
		c1.2,1.2,2.9,3,4.5,5c0.1,0.2,0.3,0.4,0.4,0.5c0.2,0.3,0.4,0.5,0.6,0.8c0.6,0.8,1.1,1.6,1.6,2.4c0.1-0.7,0.2-1.4,0.3-1.9
		c-0.5-0.7-1-1.4-1.5-2.1c-0.3-0.4-0.7-0.9-1-1.3c-0.5-0.6-1.1-1.3-1.6-1.8C436.5,273,435.9,272.3,435.3,271.8 M442.3,280.7
		c-0.1,0.6-0.2,1.3-0.4,2.1c0.1,0.1,0.1,0.3,0.2,0.4c0.1-0.7,0.3-1.4,0.4-2.1C442.4,280.9,442.3,280.8,442.3,280.7"/>
	<path class="st12" d="M435.7,270.5C435.7,270.5,435.7,270.5,435.7,270.5c-0.6,0-1.1,0.1-1.5,0.2c-0.6,0.2-1.1,0.5-1.3,0.6
		c0,0-0.1,0-0.1,0l-0.1,0l-5.9,5.8l-0.4,0.4l0.9,0.9l0.5-0.5l5.7-5.6c0.1,0,0.2-0.1,0.3-0.2c0.3-0.2,0.8-0.4,1.4-0.4
		c0.1,0,0.2,0,0.3,0h0c0.8,0,1.4,0.2,2.1,1.3l0,0l1.1,1.5l1.1,1.5l1.5,2.1c0,0.2-0.1,0.5-0.1,0.9c-0.1,0.5-0.2,1.1-0.3,1.9
		c-0.2,1.5-0.6,3.3-1,5.4c-0.9,4.7-2.1,10.3-3.3,13.9c-0.4,1.1-0.5,2.1-0.5,2.9c0,0.2,0,0.5,0,0.7c1.9-5.1,3.4-9.9,4.5-14.3
		c0.5-2.5,0.9-4.9,1.3-6.8c0.1-0.8,0.3-1.5,0.4-2.1c0.3-1.6,0.4-2.5,0.4-2.5l0-0.3l-2.6-3.6l-1.2-1.6l-0.1-0.2
		C438,271,436.8,270.5,435.7,270.5"/>
	<path class="st13" d="M444.1,267.7L444.1,267.7c0,1.3-0.3,6.2-1.6,13.4c-0.1,0.7-0.3,1.4-0.4,2.1c-0.4,2-0.9,4.1-1.4,6.4
		c-1.1,4.4-2.6,9.2-4.5,14.3c-2.5,6.5-5.7,13.5-9.9,20.4c-8.1,13.2-19.8,26.4-36.7,36.4c-17,10-39.2,17-68.6,17.8
		c29.3-0.9,51.6-7.7,68.6-17.5c17-9.8,28.7-22.7,36.7-35.6c16.1-25.9,17.7-52.2,17.8-55.2l0-0.3L444.1,267.7
		C444.1,267.7,444.1,267.7,444.1,267.7"/>
	<path class="st14" d="M418.7,237.8c-18,0-54.3,4.6-74.5,9.8c-22,5.8-41.2,12-53.8,23.1c-6.2,5.5-9.5,9.7-11.3,13.2
		c-1.9,3.5-2.4,6.2-3.2,8.4c-0.7,1.9-1,4.5-1.2,7.2c-0.2,2.8-0.3,5.7-0.3,8.2c0,3.2,0.1,5.7,0.1,6.5c-0.1,0.3-0.4,0.9-0.8,1.6
		c-0.6,0.9-1.5,1.9-2.7,2.4c0,0,0.1,0,0.1,0l1.6-0.4c0.6-0.5,1-1,1.4-1.6c0.5-0.8,0.8-1.6,0.9-1.9c0-0.7-0.1-3.3-0.1-6.6
		c0-2.5,0.1-5.5,0.3-8.2c0.2-2.7,0.6-5.3,1.2-7.1c0.8-2.2,1.3-4.9,3.1-8.3c1.8-3.4,5-7.6,11.2-13.1c12.5-11,31.7-17.3,53.6-23
		c20.1-5.3,56.4-9.8,74.4-9.8c1.8,0,3.4,0,4.8,0.1c4.1,0.3,7.5,2.3,10.4,5.1c2.9,2.8,5.2,6.3,7.1,9.8c2.6,5,4.3,9.9,5,12.3
		c0.1-0.1,0.3-0.1,0.4-0.2c-0.7-2.4-2.4-7.4-5-12.4c-1.9-3.5-4.2-7.1-7.2-10c-2.9-2.8-6.5-4.9-10.7-5.2
		C422.1,237.9,420.5,237.8,418.7,237.8 M274.5,314.2 M418.6,240.2c-17.7,0-54,4.6-73.8,9.8c-21.9,5.7-40.8,12-52.9,22.6
		c-6.1,5.4-9.1,9.4-10.8,12.6c-1.7,3.2-2.1,5.6-3,8.1c-0.5,1.5-0.9,4-1.1,6.6c-0.2,2.7-0.3,5.6-0.3,8.1c0,1.9,0,3.5,0.1,4.7
		c0,1.2,0.1,1.9,0.1,1.9l0,0.2l0,0.1c0,0.1-0.3,1.1-1.1,2.3c-0.6,1-1.5,2.1-2.9,3l0,0.1c0,0.1,0,0.3,0,0.4c1.6-0.9,2.7-2.2,3.4-3.3
		c0.8-1.3,1.1-2.3,1.1-2.4l0.1-0.2l0-0.2c0,0,0-0.7-0.1-1.9c0-1.2-0.1-2.8-0.1-4.7c0-2.5,0.1-5.4,0.3-8c0.2-2.6,0.6-5.1,1.1-6.5
		c0.9-2.5,1.3-4.9,3-8s4.7-7.1,10.7-12.4c11.9-10.5,30.8-16.8,52.7-22.5c19.7-5.2,56.1-9.8,73.7-9.8h0.1c1.7,0,3.3,0,4.6,0.1
		c3.4,0.2,6.3,1.9,9,4.4c3.9,3.8,7,9.5,8.9,14.2c1,2.4,1.7,4.5,2.2,6c0.2,0.8,0.4,1.4,0.5,1.8c0.1,0.2,0.1,0.3,0.1,0.4l0-0.2l0-0.9
		l0.1-0.1c-0.1-0.3-0.2-0.8-0.4-1.2c-0.5-1.5-1.2-3.7-2.2-6c-2-4.8-5-10.5-9-14.3c-2.7-2.6-5.8-4.3-9.3-4.6
		C422,240.2,420.4,240.2,418.6,240.2L418.6,240.2 M446.9,268.4C446.9,268.4,446.9,268.4,446.9,268.4c-0.2,3.6-1.3,17.4-7.3,34.2
		c-6.9,19.5-20.5,43.2-47,59.5c-0.5,0.3-1.1,0.7-1.6,1c0.5-0.2,1-0.3,1.4-0.5c0.1,0,0.1-0.1,0.2-0.1c26.5-15.9,40-39.1,47-58.1
		c6.9-19.1,7.3-34.2,7.3-34.3v0V268.4z M272.7,321.2c-0.1,0.9-0.1,2.1-0.1,3.7C272.6,323.3,272.7,322.1,272.7,321.2 M348.9,378.4
		c-8.6,1.6-17.9,2.6-28,2.9c10-0.3,19.2-1.3,27.7-2.8C348.7,378.5,348.8,378.5,348.9,378.4"/>
	<path class="st15" d="M392.5,362.6c-0.5,0.2-1,0.3-1.4,0.5c-11.5,6.8-25.4,12.2-42.1,15.4c-0.1,0-0.2,0.1-0.3,0.1
		C366.2,375.3,380.6,369.7,392.5,362.6"/>
	<path class="st11" d="M418.7,238.3c-17.9,0-54.3,4.6-74.4,9.8c-22,5.8-41.1,12-53.6,23c-6.2,5.5-9.4,9.6-11.2,13.1
		c-1.8,3.4-2.3,6.1-3.1,8.3c-0.6,1.8-1,4.4-1.2,7.1c-0.2,2.7-0.3,5.7-0.3,8.2c0,3.3,0.1,5.9,0.1,6.6c-0.1,0.3-0.4,1.1-0.9,1.9
		c-0.4,0.5-0.8,1.1-1.4,1.6l0.5-0.1l-0.3,2.1l0,0.2c1.4-0.8,2.3-2,2.9-2.9c0.7-1.2,1-2.2,1.1-2.3l0-0.1l0-0.1c0,0,0-0.7-0.1-1.9
		c0-1.2-0.1-2.9-0.1-4.7c0-2.5,0.1-5.4,0.3-8.1c0.2-2.7,0.6-5.1,1.1-6.6c0.9-2.4,1.3-4.9,3-8.1c1.7-3.2,4.7-7.2,10.8-12.6
		c12-10.6,31-16.9,52.9-22.6c19.8-5.2,56.1-9.8,73.8-9.8h0c1.8,0,3.3,0,4.7,0.1c3.5,0.2,6.6,2,9.3,4.6c4,3.9,7.1,9.6,9,14.3
		c1,2.4,1.7,4.5,2.2,6c0.2,0.5,0.3,0.9,0.4,1.2l0.7-0.3c0,0,0.4-0.2,1-0.5c-0.7-2.4-2.4-7.3-5-12.3c-1.8-3.5-4.2-7.1-7.1-9.9
		c-2.9-2.8-6.4-4.8-10.4-5.1C422.1,238.4,420.5,238.3,418.7,238.3"/>
	<path class="st11" d="M446.4,265.6c-0.2,0.1-0.3,0.1-0.4,0.2c-0.6,0.3-1,0.5-1,0.5l-0.7,0.3l-0.1,0.1l0,0.9l0,0.2c0,0,0,0,0,0v2.3
		l0,0.3c-0.1,3-1.7,29.3-17.8,55.2c-8.1,12.9-19.7,25.8-36.7,35.6c-17,9.8-39.2,16.6-68.6,17.5c-22.2-3.7-34.1-13.9-40.7-24.7
		c-6.6-10.8-7.7-22.4-7.7-28.9v-0.1c0-1.6,0.1-2.8,0.1-3.7c0-0.2,0-0.4,0-0.6c0-0.2,0-0.3,0-0.4l0-0.1l0-0.2l0.3-2.1l-0.5,0.1
		l-1.6,0.4c0,0,0,0-0.1,0c0,0,0,0-0.1,0l0.5,1.3l-1.4-0.2c0,0.1-0.3,2.1-0.3,5.5c0,6.8,1.1,18.9,8.1,30.4c7,11.5,19.8,22.2,42.8,26
		l0.1,0h0.1c10.1-0.3,19.4-1.3,28-2.9c16.7-3.1,30.6-8.5,42.1-15.4c0.5-0.3,1.1-0.7,1.6-1c26.5-16.3,40-39.9,47-59.5
		c6-16.8,7.1-30.6,7.3-34.2c0,0,0,0,0,0v-0.9v-0.2l0-0.2C446.9,267.1,446.7,266.6,446.4,265.6"/>
	<path class="st16" d="M562.7,174.7c-2.4,1.3-5,2.6-7.7,4.1c17,11.4,34.3,23.2,49.5,33.8c0.8-2.9,1.4-5.7,2-8.2
		C592.2,194.6,577,184.4,562.7,174.7"/>
	<path class="st13" d="M511,295.4c1,0.5,2.1,1,3.3,1.3C513.2,296.3,512,295.9,511,295.4"/>
	<path class="st17" d="M494.1,252.3c0,0.9,0,1.8,0,2.8c0,0.4,0,0.7,0,1.1c0.3,1.8,0.7,3.5,1,4.5c0.2,0.7,0.3,1.1,0.3,1.1l0,0.1
		l0.4,6.6l0,0.1l0.1,0.4c0.1,0.4,0.2,1,0.3,1.7c0.2,1.1,0.5,2.6,1,4.3L494.1,252.3z"/>
	<path class="st13" d="M494.2,249.2c-0.1,0.1-0.2,0.1-0.4,0.2l-0.1,0.3c-0.1,0.3-0.2,0.9-0.2,1.6c0,1.4,0.2,3.2,0.5,4.9
		c0-0.4,0-0.7,0-1.1c0-1,0-1.9,0-2.8C494.1,251.1,494.2,250,494.2,249.2"/>
	<path class="st14" d="M602,157.3c-4.3,0-14.6,1.7-37.4,13.2l0.2,0.4c22.8-11.5,33-13.2,37.2-13.2h0c1.2,0,1.9,0.2,2.3,0.2
		c0.3,0,0.8,0.1,1.4,0.5c0.8,0.5,1.7,1.4,2.6,2.9c1.7,3.2,3.3,9.1,3.3,20.8c0,1.6,0,3.3-0.1,5.2c0.2-0.1,0.3-0.2,0.5-0.2
		c0.1-1.8,0.1-3.4,0.1-5c0-11.7-1.6-17.7-3.4-21c-0.9-1.6-1.9-2.6-2.8-3.1c-0.7-0.4-1.2-0.5-1.6-0.6
		C604,157.5,603.2,157.3,602,157.3 M601.9,159.7c-3.9,0-14.8,1.7-39.7,14.7c0.1,0.1,0.3,0.2,0.4,0.3c24.7-12.8,35.5-14.5,39.2-14.5
		h0.1c0.7,0,1.1,0.1,1.4,0.1l0.2,0l0,0l0.3,0.1l0.2,0c0.1,0,0.3,0.1,0.6,0.3c0.7,0.5,1.8,1.8,2.8,5.1c1,3.3,1.8,8.4,1.8,16.5
		c0,2.2-0.1,4.5-0.2,7.1c0,0.1-0.1,0.5-0.1,1.1c-0.3,2.1-1,7.1-2.4,13.8c1.5-6.7,2.2-11.7,2.4-13.8c0.1-0.8,0.1-1.2,0.1-1.2l0.1-0.8
		l0.4-0.2c0.1-2.2,0.1-4.2,0.1-6.1c0-10.8-1.4-16.4-2.8-19.3c-1.4-2.8-2.6-3-2.8-3l-0.2,0l-0.2-0.1l0,0l-0.3-0.1
		C603.2,159.7,602.7,159.7,601.9,159.7L601.9,159.7 M554.6,178.5c-0.7,0.4-1.4,0.8-2.1,1.1l0,0l0,0c-36.6,18.1-46.7,43.3-49.6,55.8
		c-1,4.2-1.1,6.8-1.2,7.5c-0.1,0.8-0.5,1.5-1,2c-0.5,0.5-1.1,0.9-1.6,1.1c-1,0.5-1.9,0.7-2.1,0.7l-2.7,0.6c0,0.4-0.1,1-0.1,1.9v0
		c1.3-0.7,3-1.4,4.4-2.2c0.8-0.5,1.6-0.9,2.2-1.6c0.6-0.6,1.2-1.4,1.3-2.4c0-0.4,0.1-1.1,0.3-2.4c0.6-4.4,2.6-14.3,9.7-25.6
		c7.1-11.4,19.4-24.3,40.6-34.8l0,0l0,0c0.8-0.4,1.5-0.9,2.3-1.3C554.9,178.7,554.7,178.6,554.6,178.5 M543.2,182
		c-19.6,11.5-30.5,25-36.5,36.4c-3.4,6.5-5.2,12.2-6.2,16.5c-0.5,2.2-0.8,3.9-1,5.3c-0.2,1.3-0.2,2.2-0.3,2.5c0,0.2-0.1,0.4-0.5,0.7
		c-0.5,0.5-1.3,1-2.3,1.5l0.1,0l0,0l0.1,0l0.2,0c0.2,0,0.4-0.1,0.7-0.2c0.6-0.2,1.3-0.6,1.7-1c0.3-0.3,0.4-0.6,0.5-0.9
		c0.1-0.5,0.2-3.4,1.2-7.7c1-4.3,2.8-10,6.2-16.4c6-11.3,16.7-24.8,36.2-36.2L543.2,182z M604.5,212.6c-2.8,10.4-7.1,23-13.8,35.3
		c-6.8,12.5-16,24.6-28.5,33.6c-12.4,9-28,15-47.7,15.3c-0.1,0-0.2-0.1-0.3-0.1c0.1,0,0.2,0.1,0.3,0.1c19.7-0.3,35.3-6.3,47.7-15.3
		c12.4-9,21.7-21.1,28.5-33.6C597.4,235.6,601.8,222.9,604.5,212.6 M497.2,275.1l1,7.2c1.8,2.9,3.8,5.7,6.2,8.1c2,2,4.2,3.8,6.7,5
		c-2.2-1.1-4.2-2.7-5.8-4.5c-3.8-4.2-6.2-9.8-7.6-14.4C497.4,276,497.3,275.5,497.2,275.1 M509.7,297.9c1.3,0.7,2.8,1.2,4.4,1.6
		C512.6,299.1,511.1,298.6,509.7,297.9"/>
	<path class="st15" d="M562.2,174.4c-2.4,1.3-5,2.6-7.7,4.1c0.1,0.1,0.3,0.2,0.4,0.3c2.7-1.5,5.3-2.9,7.7-4.1
		C562.5,174.6,562.4,174.5,562.2,174.4 M606.5,204.4c-0.5,2.5-1.2,5.3-2,8.2C605.3,209.6,606,206.9,606.5,204.4"/>
	<path class="st14" d="M563.4,171.1c-3.7,1.9-7.7,4-12.1,6.4c-2,1-3.9,2-5.8,3l16.4-8.2c0.5-0.3,1.1-0.6,1.6-0.8L563.4,171.1z"/>
	<path class="st14" d="M564.5,170.6c-0.4,0.2-0.7,0.4-1.1,0.6l0.2,0.4c0.4-0.2,0.7-0.4,1.1-0.6L564.5,170.6z M562,172.4l-16.4,8.2
		c-0.8,0.4-1.6,0.9-2.4,1.4l0.2,0.4c2.6-1.5,5.3-3,8.2-4.4C555.3,175.9,558.8,174.1,562,172.4"/>
	<path class="st11" d="M602,157.8L602,157.8c-4.2,0-14.5,1.7-37.2,13.2c-0.4,0.2-0.7,0.4-1.1,0.6c-0.5,0.3-1.1,0.5-1.6,0.8
		c-3.2,1.7-6.7,3.5-10.4,5.6c-2.9,1.4-5.6,2.9-8.2,4.4c-19.5,11.4-30.3,24.9-36.2,36.2c-3.4,6.4-5.2,12.1-6.2,16.4
		c-1,4.3-1.2,7.1-1.2,7.7c0,0.3-0.2,0.6-0.5,0.9c-0.4,0.4-1.1,0.8-1.7,1c-0.3,0.1-0.6,0.2-0.7,0.2l-0.2,0l-0.1,0l0,0l-0.1,0
		c-0.1,0.1-0.3,0.1-0.4,0.2c-1.1,0.5-2.3,1.1-3.4,1.7l1.6,0.1c0,0,0,0.1,0,0.4l2.7-0.6c0.2,0,1.1-0.2,2.1-0.7
		c0.5-0.3,1.1-0.6,1.6-1.1c0.5-0.5,0.9-1.2,1-2c0.1-0.6,0.2-3.3,1.2-7.5c2.9-12.4,13-37.7,49.6-55.8l0,0l0,0
		c0.7-0.4,1.4-0.8,2.1-1.1c2.7-1.5,5.3-2.9,7.7-4.1c24.9-13,35.8-14.7,39.7-14.7h0c0.7,0,1.2,0.1,1.5,0.1l0.3,0.1l0,0l0.2,0.1l0.2,0
		c0.2,0,1.5,0.3,2.8,3c1.4,2.9,2.8,8.6,2.8,19.3c0,1.9,0,3.9-0.1,6.1l0.3-0.1c0,0,0.3-0.1,0.8-0.4c0.2-0.1,0.5-0.2,0.8-0.4
		c0.1-1.8,0.1-3.6,0.1-5.2c0-11.6-1.6-17.6-3.3-20.8c-0.9-1.6-1.8-2.5-2.6-2.9c-0.6-0.4-1.2-0.5-1.4-0.5
		C603.9,158,603.2,157.8,602,157.8"/>
	<path class="st11" d="M612,187.3c-0.2,0.1-0.3,0.2-0.5,0.2c-0.3,0.1-0.5,0.3-0.7,0.4c-0.5,0.3-0.8,0.4-0.8,0.4l-0.3,0.1l-0.4,0.2
		l-0.1,0.8c0,0,0,0.4-0.1,1.2c-0.3,2.2-1,7.1-2.4,13.8c-0.6,2.5-1.2,5.3-2,8.2c-2.8,10.4-7.1,23-13.8,35.3
		c-6.8,12.5-16,24.6-28.5,33.6c-12.4,9-28,15-47.7,15.3c-0.1,0-0.2-0.1-0.3-0.1c-1.2-0.3-2.3-0.8-3.3-1.3c-2.4-1.2-4.6-2.9-6.7-5
		c-2.4-2.4-4.4-5.2-6.2-8.1l0.1,0.7c0.3,0.7,0.7,1.4,1.1,2l-1.1,0.7c1.3,2.4,2.8,4.9,4.8,7c1.9,2.1,4.1,3.9,6.7,5.2
		c1.4,0.7,2.8,1.2,4.4,1.6l0.2,0l0.2,0c21.7-0.3,38.8-7.3,52-17.7c19.9-15.6,31.2-38.7,37.6-57.8c6.4-19.1,7.9-34.3,7.9-34.4
		l-1.4-0.1l1.4,0.1C612,188.8,612,188,612,187.3"/>
	<path class="st14" d="M492.4,247.7l-1,0.2c-0.2,0.3-0.3,0.7-0.4,1c-0.2,0.7-0.3,1.5-0.3,2.4c0,2.3,0.5,5,0.9,7.3
		c0.2,1.2,0.5,2.2,0.7,2.9c-0.1-2.3-0.1-4.5-0.1-6.4C492.2,251.7,492.3,249,492.4,247.7"/>
	<path class="st11" d="M492.4,246.9C492.4,246.9,492.4,246.9,492.4,246.9c-0.5,0.3-0.8,0.6-1,1l1-0.2
		C492.4,247.3,492.4,247.1,492.4,246.9"/>
	<path class="st11" d="M492.7,246.8c-0.1,0-0.2,0.1-0.3,0.1c0,0.2,0,0.4,0,0.8c-0.1,1.3-0.2,4-0.2,7.4c0,1.9,0,4.1,0.1,6.4
		c0.1,0.4,0.2,0.7,0.2,0.9l0.4,6.4l0,0c0,0.1,0.8,6.5,3.7,13.6c0.5,1.1,1,2.2,1.6,3.4l1.1-0.7c-0.4-0.6-0.8-1.3-1.1-2
		c-1.5-3.2-2.5-7.6-3.2-12.1c-0.7-5.1-0.9-10.4-1-14.7c-0.3-1.7-0.5-3.5-0.5-4.9c0-0.7,0.1-1.3,0.2-1.6l0.1-0.3
		c0.1-0.1,0.2-0.1,0.4-0.2v0c0.1-1.4,0.1-2.3,0.1-2.3L492.7,246.8z"/>
	<path class="st18" d="M494.1,256.2c0,4.3,0.3,9.7,1,14.7c0.6,4.5,1.6,8.8,3.2,12.1l-0.1-0.7l-1-7.2c-0.5-1.7-0.8-3.2-1-4.3
		c-0.1-0.7-0.2-1.3-0.3-1.7l-0.1-0.4l0-0.1l-0.4-6.6l0-0.1c0,0-0.1-0.4-0.3-1.1C494.8,259.6,494.4,258,494.1,256.2"/>
</g>
</svg>
